<svg width="183" height="183" viewBox="0 0 183 183" fill="none" xmlns="http://www.w3.org/2000/svg">
<rect width="183" height="183" rx="20" fill="url(#paint0_linear_7_232)"/>
<path d="M83 66L93 91.5L102 76L96 60.5L113 41.5L102 60.5L107.5 72L130.5 66L105 81L94.5942 101.5L98.5 126L143.5 91.5L99.4 139.5L102 159L117 168.5H60.5L74.7203 159L77.5 121.5L69 105.5H60.5L43 91.5L60.5 101.5H69L40 76L77.5 101.5L74.7203 81L64.5 76L48.5 60.5L64.5 72H73.5L87 31L83 66Z" fill="white"/>
<path d="M78 45C78 46.6569 76.6569 48 75 48C73.3431 48 72 46.6569 72 45C72 43.3431 73.3431 42 75 42C76.6569 42 78 43.3431 78 45Z" fill="white"/>
<path d="M77 23C77 24.6569 75.6569 26 74 26C72.3431 26 71 24.6569 71 23C71 21.3431 72.3431 20 74 20C75.6569 20 77 21.3431 77 23Z" fill="white"/>
<path d="M97 19.5C97 21.9853 94.9853 24 92.5 24C90.0147 24 88 21.9853 88 19.5C88 17.0147 90.0147 15 92.5 15C94.9853 15 97 17.0147 97 19.5Z" fill="white"/>
<path d="M38 85.5C38 87.9853 35.9853 90 33.5 90C31.0147 90 29 87.9853 29 85.5C29 83.0147 31.0147 81 33.5 81C35.9853 81 38 83.0147 38 85.5Z" fill="white"/>
<path d="M60 112C60 113.657 58.6569 115 57 115C55.3431 115 54 113.657 54 112C54 110.343 55.3431 109 57 109C58.6569 109 60 110.343 60 112Z" fill="white"/>
<path d="M41 110C41 111.657 39.6569 113 38 113C36.3431 113 35 111.657 35 110C35 108.343 36.3431 107 38 107C39.6569 107 41 108.343 41 110Z" fill="white"/>
<path d="M58 76C58 77.6569 56.6569 79 55 79C53.3431 79 52 77.6569 52 76C52 74.3431 53.3431 73 55 73C56.6569 73 58 74.3431 58 76Z" fill="white"/>
<path d="M37 71.5C37 73.9853 34.9853 76 32.5 76C30.0147 76 28 73.9853 28 71.5C28 69.0147 30.0147 67 32.5 67C34.9853 67 37 69.0147 37 71.5Z" fill="white"/>
<path d="M100 41C100 42.6569 98.6569 44 97 44C95.3431 44 94 42.6569 94 41C94 39.3431 95.3431 38 97 38C98.6569 38 100 39.3431 100 41Z" fill="white"/>
<path d="M123 35.5C123 37.9853 120.985 40 118.5 40C116.015 40 114 37.9853 114 35.5C114 33.0147 116.015 31 118.5 31C120.985 31 123 33.0147 123 35.5Z" fill="white"/>
<path d="M118 57C118 58.6569 116.657 60 115 60C113.343 60 112 58.6569 112 57C112 55.3431 113.343 54 115 54C116.657 54 118 55.3431 118 57Z" fill="white"/>
<path d="M142 61.5C142 63.9853 139.985 66 137.5 66C135.015 66 133 63.9853 133 61.5C133 59.0147 135.015 57 137.5 57C139.985 57 142 59.0147 142 61.5Z" fill="white"/>
<path d="M118 105C118 106.657 116.657 108 115 108C113.343 108 112 106.657 112 105C112 103.343 113.343 102 115 102C116.657 102 118 103.343 118 105Z" fill="white"/>
<path d="M124 83C124 84.6569 122.657 86 121 86C119.343 86 118 84.6569 118 83C118 81.3431 119.343 80 121 80C122.657 80 124 81.3431 124 83Z" fill="white"/>
<path d="M137 80C137 81.6569 135.657 83 134 83C132.343 83 131 81.6569 131 80C131 78.3431 132.343 77 134 77C135.657 77 137 78.3431 137 80Z" fill="white"/>
<path d="M154 86.5C154 88.9853 151.985 91 149.5 91C147.015 91 145 88.9853 145 86.5C145 84.0147 147.015 82 149.5 82C151.985 82 154 84.0147 154 86.5Z" fill="white"/>
<path d="M139 116C139 117.657 137.657 119 136 119C134.343 119 133 117.657 133 116C133 114.343 134.343 113 136 113C137.657 113 139 114.343 139 116Z" fill="white"/>
<path d="M151 102C151 103.657 149.657 105 148 105C146.343 105 145 103.657 145 102C145 100.343 146.343 99 148 99C149.657 99 151 100.343 151 102Z" fill="white"/>
<path d="M44 54C44 55.6569 42.6569 57 41 57C39.3431 57 38 55.6569 38 54C38 52.3431 39.3431 51 41 51C42.6569 51 44 52.3431 44 54Z" fill="white"/>
<path d="M60 40C60 41.6569 58.6569 43 57 43C55.3431 43 54 41.6569 54 40C54 38.3431 55.3431 37 57 37C58.6569 37 60 38.3431 60 40Z" fill="white"/>
<path d="M70 59.5C70 61.9853 67.9853 64 65.5 64C63.0147 64 61 61.9853 61 59.5C61 57.0147 63.0147 55 65.5 55C67.9853 55 70 57.0147 70 59.5Z" fill="white"/>
<path d="M91 23.5L89 29L85 27L79.6875 37M79.6875 37L76.5 43M79.6875 37L76.5 35.5L81 27L76.5 24.5M37 88L40.5 90.5L38 93.5L43.5 97.68M54.5 111L48 106L50.5 103L43.5 97.68M39.5 108L43.5 103L40.5 101L43.5 97.68M35 67.5L36.5 66L43 71.5L46 68.5L53 74M99 38.5L101.5 36L104 38.5L112 30.5L115 33M116.5 59.5L118 62L132.5 54.5L135 58.5M117.5 103L125 97.6196M125 97.6196L140.5 86.5L138.25 84.25M125 97.6196L122 94L126.5 90.5L122 84.5M138.25 84.25L136 82M138.25 84.25L142.5 80.5L146 84.25M138 114.5L147 104M63 62.5L61 65L49 55.5L47 58L43 55.5M52 57.5L63 45L59 42M78 45C78 46.6569 76.6569 48 75 48C73.3431 48 72 46.6569 72 45C72 43.3431 73.3431 42 75 42C76.6569 42 78 43.3431 78 45ZM77 23C77 24.6569 75.6569 26 74 26C72.3431 26 71 24.6569 71 23C71 21.3431 72.3431 20 74 20C75.6569 20 77 21.3431 77 23ZM97 19.5C97 21.9853 94.9853 24 92.5 24C90.0147 24 88 21.9853 88 19.5C88 17.0147 90.0147 15 92.5 15C94.9853 15 97 17.0147 97 19.5ZM38 85.5C38 87.9853 35.9853 90 33.5 90C31.0147 90 29 87.9853 29 85.5C29 83.0147 31.0147 81 33.5 81C35.9853 81 38 83.0147 38 85.5ZM60 112C60 113.657 58.6569 115 57 115C55.3431 115 54 113.657 54 112C54 110.343 55.3431 109 57 109C58.6569 109 60 110.343 60 112ZM41 110C41 111.657 39.6569 113 38 113C36.3431 113 35 111.657 35 110C35 108.343 36.3431 107 38 107C39.6569 107 41 108.343 41 110ZM58 76C58 77.6569 56.6569 79 55 79C53.3431 79 52 77.6569 52 76C52 74.3431 53.3431 73 55 73C56.6569 73 58 74.3431 58 76ZM37 71.5C37 73.9853 34.9853 76 32.5 76C30.0147 76 28 73.9853 28 71.5C28 69.0147 30.0147 67 32.5 67C34.9853 67 37 69.0147 37 71.5ZM100 41C100 42.6569 98.6569 44 97 44C95.3431 44 94 42.6569 94 41C94 39.3431 95.3431 38 97 38C98.6569 38 100 39.3431 100 41ZM123 35.5C123 37.9853 120.985 40 118.5 40C116.015 40 114 37.9853 114 35.5C114 33.0147 116.015 31 118.5 31C120.985 31 123 33.0147 123 35.5ZM118 57C118 58.6569 116.657 60 115 60C113.343 60 112 58.6569 112 57C112 55.3431 113.343 54 115 54C116.657 54 118 55.3431 118 57ZM142 61.5C142 63.9853 139.985 66 137.5 66C135.015 66 133 63.9853 133 61.5C133 59.0147 135.015 57 137.5 57C139.985 57 142 59.0147 142 61.5ZM118 105C118 106.657 116.657 108 115 108C113.343 108 112 106.657 112 105C112 103.343 113.343 102 115 102C116.657 102 118 103.343 118 105ZM124 83C124 84.6569 122.657 86 121 86C119.343 86 118 84.6569 118 83C118 81.3431 119.343 80 121 80C122.657 80 124 81.3431 124 83ZM137 80C137 81.6569 135.657 83 134 83C132.343 83 131 81.6569 131 80C131 78.3431 132.343 77 134 77C135.657 77 137 78.3431 137 80ZM154 86.5C154 88.9853 151.985 91 149.5 91C147.015 91 145 88.9853 145 86.5C145 84.0147 147.015 82 149.5 82C151.985 82 154 84.0147 154 86.5ZM139 116C139 117.657 137.657 119 136 119C134.343 119 133 117.657 133 116C133 114.343 134.343 113 136 113C137.657 113 139 114.343 139 116ZM151 102C151 103.657 149.657 105 148 105C146.343 105 145 103.657 145 102C145 100.343 146.343 99 148 99C149.657 99 151 100.343 151 102ZM44 54C44 55.6569 42.6569 57 41 57C39.3431 57 38 55.6569 38 54C38 52.3431 39.3431 51 41 51C42.6569 51 44 52.3431 44 54ZM60 40C60 41.6569 58.6569 43 57 43C55.3431 43 54 41.6569 54 40C54 38.3431 55.3431 37 57 37C58.6569 37 60 38.3431 60 40ZM70 59.5C70 61.9853 67.9853 64 65.5 64C63.0147 64 61 61.9853 61 59.5C61 57.0147 63.0147 55 65.5 55C67.9853 55 70 57.0147 70 59.5Z" stroke="white" stroke-width="1.5"/>
<defs>
<linearGradient id="paint0_linear_7_232" x1="92" y1="76" x2="91.5" y2="183" gradientUnits="userSpaceOnUse">
<stop stop-color="#08CB4A"/>
<stop offset="1" stop-color="#046525"/>
</linearGradient>
</defs>
</svg>
